<svg width="59" height="57" viewBox="0 0 59 57" fill="none" xmlns="http://www.w3.org/2000/svg">
<path d="M39.389 25.2107L37.6506 29.8855C37.0054 31.6624 35.9069 33.2774 34.4438 34.6004C32.9807 35.9234 31.1939 36.9174 29.2275 37.5022L23.994 39.0724C23.8171 39.1241 23.6628 39.2252 23.5534 39.361C23.444 39.4969 23.3851 39.6606 23.3851 39.8285C23.3851 39.9965 23.444 40.1602 23.5534 40.296C23.6628 40.4319 23.8171 40.533 23.994 40.5847L29.2275 42.1549C31.1756 42.74 32.9457 43.7277 34.3968 45.0395C35.848 46.3512 36.9402 47.9508 37.5865 49.7109L39.3218 54.4437C39.3775 54.6049 39.4887 54.7458 39.6393 54.8459C39.7899 54.946 39.972 55 40.1589 55C40.3459 55 40.528 54.946 40.6786 54.8459C40.8292 54.7458 40.9404 54.6049 40.9961 54.4437L42.7986 49.7688C43.4457 48.0095 44.5378 46.4107 45.9882 45.0991C47.4387 43.7875 49.2076 42.7993 51.1545 42.2129L56.3911 40.6426C56.568 40.5909 56.7223 40.4899 56.8317 40.354C56.9411 40.2181 57 40.0545 57 39.8865C57 39.7185 56.9411 39.5548 56.8317 39.419C56.7223 39.2831 56.568 39.1821 56.3911 39.1304L51.2217 37.5022C49.2545 36.9187 47.4669 35.9252 46.0036 34.602C44.5403 33.2788 43.4424 31.6631 42.7986 29.8855L41.0602 25.1527C41.0114 25.0358 40.9328 24.9308 40.8308 24.8464C40.7289 24.7619 40.6063 24.7003 40.4731 24.6664C40.34 24.6326 40.1998 24.6275 40.064 24.6516C39.9283 24.6756 39.8007 24.7282 39.6915 24.805C39.5455 24.9089 39.4396 25.0491 39.389 25.2107ZM13.6339 11.6525L12.3721 15.0496C11.9025 16.3421 11.1032 17.5167 10.0386 18.4788C8.97403 19.4409 7.67401 20.1635 6.24341 20.5883L2.43666 21.7308C2.30941 21.7695 2.19882 21.8433 2.12048 21.9419C2.04214 22.0404 2 22.1586 2 22.2799C2 22.4012 2.04214 22.5195 2.12048 22.618C2.19882 22.7165 2.30941 22.7904 2.43666 22.8291L6.24341 23.9744C7.65995 24.3994 8.94713 25.1171 10.0026 26.0705C11.0581 27.0239 11.8527 28.1865 12.3232 29.4661L13.585 32.9101C13.6279 33.025 13.7096 33.1249 13.8187 33.1957C13.9278 33.2665 14.0587 33.3045 14.193 33.3045C14.3273 33.3045 14.4582 33.2665 14.5673 33.1957C14.6763 33.1249 14.7581 33.025 14.801 32.9101L16.1147 29.5102C16.5863 28.2312 17.3813 27.069 18.4366 26.1158C19.4919 25.1626 20.7785 24.4445 22.1945 24.0185L25.9982 22.8733C26.1255 22.8345 26.236 22.7607 26.3144 22.6621C26.3927 22.5636 26.4349 22.4454 26.4349 22.3241C26.4349 22.2028 26.3927 22.0845 26.3144 21.986C26.236 21.8875 26.1255 21.8137 25.9982 21.7749L22.2403 20.5883C20.8098 20.1639 19.51 19.4414 18.4458 18.4792C17.3817 17.517 16.5831 16.3422 16.1147 15.0496L14.8499 11.6084C14.8021 11.4947 14.716 11.3975 14.6037 11.3305C14.4915 11.2635 14.3587 11.2301 14.2243 11.235C14.0898 11.2399 13.9605 11.2828 13.8545 11.3578C13.7486 11.4327 13.6714 11.5358 13.6339 11.6525ZM37.614 2.20899L36.9816 3.90893C36.7474 4.55515 36.3483 5.1426 35.8166 5.62389C35.2848 6.10517 34.6352 6.46681 33.9203 6.67962L32.0169 7.25087C31.9692 7.26487 31.9259 7.28886 31.8905 7.32088C31.855 7.3529 31.8285 7.39203 31.813 7.43509C31.7975 7.47815 31.7935 7.52392 31.8013 7.56864C31.8091 7.61336 31.8286 7.65577 31.858 7.69241C31.8969 7.7427 31.9526 7.78042 32.0169 7.80004L33.9203 8.37129C34.6285 8.58381 35.2721 8.94268 35.7999 9.41936C36.3276 9.89604 36.7249 10.4774 36.9602 11.1171L37.5895 12.8392C37.6103 12.8976 37.651 12.9487 37.7059 12.9849C37.7609 13.0211 37.8271 13.0406 37.8951 13.0406C37.963 13.0406 38.0293 13.0211 38.0842 12.9849C38.1391 12.9487 38.1799 12.8976 38.2006 12.8392L38.8544 11.1392C39.0903 10.4998 39.4878 9.91873 40.0155 9.44213C40.5431 8.96553 41.1864 8.60646 41.8943 8.39336L43.7977 7.82212C43.8624 7.80339 43.9189 7.76657 43.959 7.71697C43.999 7.66737 44.0206 7.60756 44.0206 7.54615C44.0206 7.48474 43.999 7.42493 43.959 7.37533C43.9189 7.32573 43.8624 7.28891 43.7977 7.27019L41.9187 6.67962C41.2031 6.46737 40.5528 6.10597 40.0205 5.62464C39.4881 5.1433 39.0886 4.55556 38.8544 3.90893L38.222 2.18691C38.1981 2.1301 38.155 2.0815 38.0989 2.048C38.0428 2.0145 37.9764 1.99779 37.9092 2.00023C37.842 2.00267 37.7773 2.02414 37.7243 2.06161C37.6713 2.09907 37.6327 2.15063 37.614 2.20899Z" stroke="white" stroke-width="3.6" stroke-linecap="round" stroke-linejoin="round"/>
</svg>
