<svg width="65" height="65" viewBox="0 0 65 65" fill="none" xmlns="http://www.w3.org/2000/svg">
<path d="M48.75 40.6251C46.5951 40.6251 44.5285 39.7691 43.0047 38.2453C41.481 36.7216 40.625 34.655 40.625 32.5001C40.625 30.3452 41.481 28.2786 43.0047 26.7549C44.5285 25.2311 46.5951 24.3751 48.75 24.3751C50.9049 24.3751 52.9715 25.2311 54.4952 26.7549C56.0189 28.2786 56.875 30.3452 56.875 32.5001C56.875 34.655 56.0189 36.7216 54.4952 38.2453C52.9715 39.7691 50.9049 40.6251 48.75 40.6251ZM48.75 28.4376C47.6725 28.4376 46.6392 28.8656 45.8773 29.6275C45.1155 30.3893 44.6875 31.4227 44.6875 32.5001C44.6875 33.5775 45.1155 34.6109 45.8773 35.3727C46.6392 36.1346 47.6725 36.5626 48.75 36.5626C49.8274 36.5626 50.8607 36.1346 51.6226 35.3727C52.3845 34.6109 52.8125 33.5775 52.8125 32.5001C52.8125 31.4227 52.3845 30.3893 51.6226 29.6275C50.8607 28.8656 49.8274 28.4376 48.75 28.4376ZM32.0937 17.022C30.8215 17.0318 29.5647 16.7427 28.4247 16.178C27.2846 15.6133 26.2931 14.7888 25.5299 13.7708C24.7668 12.7528 24.2534 11.5698 24.031 10.3171C23.8087 9.06444 23.8836 7.77704 24.2498 6.55862C24.616 5.34019 25.2632 4.22478 26.1393 3.30223C27.0154 2.37967 28.0959 1.67575 29.2938 1.24714C30.4917 0.818543 31.7736 0.677242 33.0361 0.83462C34.2986 0.991999 35.5064 1.44366 36.5625 2.15323C38.0034 3.12139 39.0963 4.5256 39.6811 6.16007C40.2659 7.79454 40.3118 9.57334 39.8122 11.2358C39.3125 12.8983 38.2935 14.357 36.9046 15.3983C35.5156 16.4396 33.8296 17.0086 32.0937 17.022ZM32.0937 4.83448C31.0172 4.83717 29.9857 5.26706 29.2259 6.02973C28.4661 6.7924 28.04 7.82548 28.0414 8.90204C28.0427 9.9786 28.4713 11.0106 29.233 11.7714C29.9948 12.5321 31.0273 12.9595 32.1039 12.9595C33.1804 12.9595 34.213 12.5321 34.9747 11.7714C35.7364 11.0106 36.165 9.9786 36.1664 8.90204C36.1677 7.82548 35.7417 6.7924 34.9819 6.02973C34.2221 5.26706 33.1906 4.83717 32.114 4.83448H32.0937ZM32.114 64.2282C29.9591 64.2506 27.8836 63.416 26.3441 61.9081C24.8046 60.4001 23.9271 58.3424 23.9047 56.1875C23.8824 54.0326 24.717 51.9571 26.2249 50.4176C27.7328 48.878 29.7906 48.0006 31.9454 47.9782C33.0124 47.9672 34.0712 48.1664 35.0612 48.5644C36.0512 48.9625 36.9531 49.5517 37.7154 50.2984C38.4777 51.045 39.0855 51.9345 39.504 52.916C39.9225 53.8976 40.1437 54.9519 40.1547 56.0189C40.1658 57.0859 39.9666 58.1446 39.5685 59.1346C39.1704 60.1247 38.5812 61.0266 37.8346 61.7889C37.0879 62.5512 36.1984 63.1589 35.2169 63.5775C34.2354 63.996 33.181 64.2172 32.114 64.2282ZM32.114 52.0407C31.0759 52.1424 30.1166 52.6396 29.435 53.4292C28.7534 54.2187 28.4016 55.2403 28.4525 56.2822C28.5034 57.324 28.9531 58.3064 29.7085 59.0258C30.4639 59.7451 31.467 60.1464 32.5101 60.1464C33.5532 60.1464 34.5564 59.7451 35.3118 59.0258C36.0671 58.3064 36.5169 57.324 36.5678 56.2822C36.6187 55.2403 36.2669 54.2187 35.5852 53.4292C34.9036 52.6396 33.9444 52.1424 32.9062 52.0407C32.6361 52.0136 32.3639 52.0136 32.0937 52.0407H32.114Z" fill="white"/>
<path d="M36.5625 34.5312V30.4687H24.0906C23.7769 29.237 23.1786 28.096 22.3438 27.1375L27.0359 20.15L23.6234 17.875L18.9312 24.8625C18.0713 24.5502 17.1648 24.3854 16.25 24.375C14.0951 24.375 12.0285 25.231 10.5048 26.7548C8.98102 28.2785 8.125 30.3451 8.125 32.5C8.125 34.6549 8.98102 36.7215 10.5048 38.2452C12.0285 39.769 14.0951 40.625 16.25 40.625C17.1648 40.6146 18.0713 40.4498 18.9312 40.1375L23.6234 47.125L26.9953 44.85L22.3438 37.8625C23.1786 36.904 23.7769 35.763 24.0906 34.5312H36.5625ZM12.1875 32.5C12.1875 31.4226 12.6155 30.3892 13.3774 29.6274C14.1392 28.8655 15.1726 28.4375 16.25 28.4375C17.3274 28.4375 18.3608 28.8655 19.1226 29.6274C19.8845 30.3892 20.3125 31.4226 20.3125 32.5C20.3125 33.5774 19.8845 34.6108 19.1226 35.3726C18.3608 36.1345 17.3274 36.5625 16.25 36.5625C15.1726 36.5625 14.1392 36.1345 13.3774 35.3726C12.6155 34.6108 12.1875 33.5774 12.1875 32.5Z" fill="white"/>
</svg>
