<svg width="55" height="49" viewBox="0 0 55 49" fill="none" xmlns="http://www.w3.org/2000/svg">
<path d="M19.6507 8.15986C19.6507 5.99573 20.4777 3.92024 21.9497 2.38997C23.4217 0.859697 25.4182 0 27.5 0C29.5818 0 31.5783 0.859697 33.0503 2.38997C34.5223 3.92024 35.3493 5.99573 35.3493 8.15986C35.3493 10.324 34.5223 12.3995 33.0503 13.9298C31.5783 15.46 29.5818 16.3197 27.5 16.3197C25.4182 16.3197 23.4217 15.46 21.9497 13.9298C20.4777 12.3995 19.6507 10.324 19.6507 8.15986ZM27.5 4.08401C26.9851 4.08401 26.4753 4.18944 25.9996 4.39427C25.5239 4.5991 25.0917 4.89932 24.7276 5.2778C24.3636 5.65628 24.0748 6.1056 23.8777 6.6001C23.6807 7.09461 23.5793 7.62461 23.5793 8.15986C23.5793 8.69511 23.6807 9.22511 23.8777 9.71962C24.0748 10.2141 24.3636 10.6634 24.7276 11.0419C25.0917 11.4204 25.5239 11.7206 25.9996 11.9255C26.4753 12.1303 26.9851 12.2357 27.5 12.2357C28.5398 12.2357 29.5371 11.8063 30.2724 11.0419C31.0076 10.2775 31.4207 9.24084 31.4207 8.15986C31.4207 7.07888 31.0076 6.04217 30.2724 5.2778C29.5371 4.51343 28.5398 4.08401 27.5 4.08401ZM39.2857 10.2019C39.2857 9.39739 39.4381 8.60078 39.7343 7.85754C40.0304 7.1143 40.4645 6.43897 41.0117 5.87012C41.5589 5.30126 42.2085 4.85002 42.9235 4.54216C43.6384 4.2343 44.4047 4.07585 45.1786 4.07585C45.9524 4.07585 46.7187 4.2343 47.4337 4.54216C48.1486 4.85002 48.7982 5.30126 49.3455 5.87012C49.8927 6.43897 50.3267 7.1143 50.6229 7.85754C50.919 8.60078 51.0714 9.39739 51.0714 10.2019C51.0714 11.8266 50.4506 13.3848 49.3455 14.5336C48.2403 15.6825 46.7415 16.3279 45.1786 16.3279C43.6157 16.3279 42.1168 15.6825 41.0117 14.5336C39.9066 13.3848 39.2857 11.8266 39.2857 10.2019ZM45.1786 8.15986C44.6576 8.15986 44.158 8.375 43.7896 8.75795C43.4212 9.1409 43.2143 9.66029 43.2143 10.2019C43.2143 10.7434 43.4212 11.2628 43.7896 11.6458C44.158 12.0287 44.6576 12.2439 45.1786 12.2439C45.6995 12.2439 46.1992 12.0287 46.5675 11.6458C46.9359 11.2628 47.1429 10.7434 47.1429 10.2019C47.1429 9.66029 46.9359 9.1409 46.5675 8.75795C46.1992 8.375 45.6995 8.15986 45.1786 8.15986ZM9.82143 4.07585C8.25855 4.07585 6.75968 4.72126 5.65455 5.87012C4.54943 7.01897 3.92857 8.57714 3.92857 10.2019C3.92857 11.8266 4.54943 13.3848 5.65455 14.5336C6.75968 15.6825 8.25855 16.3279 9.82143 16.3279C11.3843 16.3279 12.8832 15.6825 13.9883 14.5336C15.0934 13.3848 15.7143 11.8266 15.7143 10.2019C15.7143 8.57714 15.0934 7.01897 13.9883 5.87012C12.8832 4.72126 11.3843 4.07585 9.82143 4.07585ZM7.85714 10.2019C7.85714 9.66029 8.0641 9.1409 8.43247 8.75795C8.80085 8.375 9.30047 8.15986 9.82143 8.15986C10.3424 8.15986 10.842 8.375 11.2104 8.75795C11.5788 9.1409 11.7857 9.66029 11.7857 10.2019C11.7857 10.7434 11.5788 11.2628 11.2104 11.6458C10.842 12.0287 10.3424 12.2439 9.82143 12.2439C9.30047 12.2439 8.80085 12.0287 8.43247 11.6458C8.0641 11.2628 7.85714 10.7434 7.85714 10.2019ZM12.8386 20.4119C12.1489 21.6536 11.7858 23.0621 11.7857 24.4959H3.92857V34.706C3.92825 35.7218 4.17095 36.7218 4.6348 37.6159C5.09865 38.51 5.76911 39.2701 6.58581 39.8279C7.40251 40.3857 8.33983 40.7236 9.31337 40.8112C10.2869 40.8987 11.2661 40.7333 12.1629 40.3296C12.4536 41.6814 12.9093 42.972 13.4986 44.1768C12.0075 44.8026 10.3915 45.0383 8.79237 44.8632C7.19323 44.688 5.65992 44.1074 4.32709 43.1723C2.99426 42.2371 1.90268 40.9761 1.14821 39.4999C0.393745 38.0237 -0.000534473 36.3776 5.43766e-07 34.706V24.4959C5.43766e-07 23.4128 0.413902 22.374 1.15065 21.6081C1.8874 20.8422 2.88665 20.4119 3.92857 20.4119H12.8386ZM41.5014 44.1768C42.9925 44.8026 44.6085 45.0383 46.2076 44.8632C47.8068 44.688 49.3401 44.1074 50.6729 43.1723C52.0057 42.2371 53.0973 40.9761 53.8518 39.4999C54.6063 38.0237 55.0005 36.3776 55 34.706V24.4959C55 23.4128 54.5861 22.374 53.8493 21.6081C53.1126 20.8422 52.1134 20.4119 51.0714 20.4119H42.1614C42.8293 21.6126 43.2143 23.0053 43.2143 24.4959H51.0714V34.706C51.0717 35.7218 50.8291 36.7218 50.3652 37.6159C49.9013 38.51 49.2309 39.2701 48.4142 39.8279C47.5975 40.3857 46.6602 40.7236 45.6866 40.8112C44.7131 40.8987 43.7339 40.7333 42.8371 40.3296C42.5386 41.6855 42.0933 42.9679 41.5014 44.1768ZM19.6429 20.4078C18.6009 20.4078 17.6017 20.8381 16.8649 21.604C16.1282 22.3699 15.7143 23.4087 15.7143 24.4918V36.748C15.7143 39.9974 16.956 43.1138 19.1662 45.4115C21.3765 47.7092 24.3742 49 27.5 49C30.6258 49 33.6235 47.7092 35.8338 45.4115C38.044 43.1138 39.2857 39.9974 39.2857 36.748V24.4959C39.2857 23.4128 38.8718 22.374 38.1351 21.6081C37.3983 20.8422 36.3991 20.4119 35.3571 20.4119L19.6429 20.4078ZM19.6429 24.4918H35.3571V36.748C35.3571 38.9143 34.5293 40.9918 33.0558 42.5236C31.5823 44.0554 29.5838 44.916 27.5 44.916C25.4162 44.916 23.4177 44.0554 21.9442 42.5236C20.4707 40.9918 19.6429 38.9143 19.6429 36.748V24.4918Z" fill="white"/>
</svg>
