<svg width="46" height="61" viewBox="0 0 46 61" fill="none" xmlns="http://www.w3.org/2000/svg">
<path d="M41.3999 60.9999C40.1852 61.0007 39.0194 60.6032 38.157 59.8943L23.0004 47.313L7.95872 59.7418C7.32242 60.3055 6.49465 60.6958 5.58491 60.8611C4.67516 61.0264 3.72628 60.959 2.86379 60.6677C2.00129 60.3764 1.26581 59.8749 0.754618 59.2296C0.243422 58.5844 -0.0194015 57.8257 0.000908694 57.0539V3.81238C0.000908694 2.80124 0.485539 1.83152 1.34819 1.11654C2.21083 0.401554 3.38083 -0.000118747 4.6008 -0.000118747H41.3999C42.6199 -0.000118747 43.7899 0.401554 44.6525 1.11654C45.5152 1.83152 45.9998 2.80124 45.9998 3.81238V57.1874C45.9998 58.1985 45.5152 59.1682 44.6525 59.8832C43.7899 60.5982 42.6199 60.9999 41.3999 60.9999ZM41.3999 57.1874V3.81238H4.6008V57.0539L23.0004 41.9374L41.3999 57.1874Z" fill="white"/>
</svg>
