<svg width="92" height="92" viewBox="0 0 92 92" fill="none" xmlns="http://www.w3.org/2000/svg">
<g clip-path="url(#clip0_135_6)">
<path d="M66.4446 86.8889C65.0949 86.8899 63.7995 86.3571 62.8412 85.4066L46.0001 68.54L29.2868 85.2022C28.5798 85.9579 27.66 86.4812 26.6492 86.7028C25.6383 86.9245 24.584 86.834 23.6256 86.4435C22.6673 86.053 21.8501 85.3807 21.282 84.5156C20.714 83.6506 20.422 82.6335 20.4446 81.5989V10.2222C20.4446 8.86664 20.9831 7.56661 21.9416 6.60809C22.9001 5.64957 24.2001 5.11108 25.5557 5.11108H66.4446C67.8001 5.11108 69.1002 5.64957 70.0587 6.60809C71.0172 7.56661 71.5557 8.86664 71.5557 10.2222V81.7778C71.5557 83.1333 71.0172 84.4333 70.0587 85.3919C69.1002 86.3504 67.8001 86.8889 66.4446 86.8889ZM66.4446 81.7778V10.2222H25.5557V81.5989L46.0001 61.3333L66.4446 81.7778Z" fill="white"/>
</g>
<defs>
<clipPath id="clip0_135_6">
<rect width="92" height="92" fill="white"/>
</clipPath>
</defs>
</svg>
