<svg width="56" height="56" viewBox="0 0 56 56" fill="none" xmlns="http://www.w3.org/2000/svg">
<path d="M33.9976 28.8011L33.9976 28.8011L33.9939 28.8116C33.4892 30.2537 32.6269 31.5737 31.4679 32.6613C30.3086 33.7492 28.8854 34.5731 27.31 35.0593L27.3064 35.0604L22.559 36.5386C22.5568 36.5392 22.5547 36.5399 22.5526 36.5405C22.1085 36.6767 21.7046 36.9457 21.409 37.3267C21.1106 37.7112 20.941 38.1874 20.941 38.6873C20.941 39.1872 21.1106 39.6634 21.409 40.0479C21.7046 40.4289 22.1085 40.6979 22.5526 40.8341C22.5547 40.8347 22.5568 40.8354 22.559 40.836L27.306 42.3141C28.8663 42.8004 30.2758 43.6189 31.4254 44.6973C32.5747 45.7753 33.4319 47.0824 33.9373 48.5106L35.5112 52.9651C35.6703 53.4313 35.9762 53.8207 36.3659 54.0895C36.7591 54.3606 37.2229 54.5 37.6899 54.5C38.157 54.5 38.6208 54.3606 39.014 54.0895C39.3996 53.8235 39.7032 53.4394 39.8636 52.9798L41.4957 48.5874L41.5035 48.566C42.0096 47.1382 42.8669 45.8314 44.0157 44.7533C45.1649 43.675 46.5735 42.8561 48.1329 42.3685C48.1331 42.3685 48.1333 42.3684 48.1334 42.3684L52.882 40.8907C52.8839 40.8901 52.8859 40.8895 52.8878 40.8889C53.3321 40.7528 53.7363 40.4838 54.032 40.1026C54.3304 39.7181 54.5 39.2418 54.5 38.742C54.5 38.2421 54.3304 37.7659 54.032 37.3814C53.7392 37.004 53.3402 36.7365 52.9012 36.5992L48.2131 35.0668L48.1883 35.059C46.6125 34.574 45.189 33.7506 44.0297 32.6628C42.8709 31.5754 42.0092 30.2551 41.5059 28.8128L41.5037 28.8066L39.9233 24.3417C39.9163 24.3217 39.9088 24.3019 39.9009 24.2822C39.7642 23.9426 39.5481 23.6474 39.2785 23.4157C39.0093 23.1843 38.6931 23.0213 38.358 22.933C38.0229 22.8447 37.6723 22.8316 37.3323 22.8942C36.9922 22.9567 36.6657 23.0945 36.3805 23.3027L36.3743 23.3072C36.0115 23.575 35.7192 23.9545 35.5685 24.4172L33.9976 28.8011ZM9.24926 26.8024C10.0385 27.5422 10.625 28.4369 10.9706 29.4115C10.9707 29.4118 10.9708 29.4121 10.9709 29.4124L12.1174 32.6598L12.1174 32.6598L12.1203 32.668C12.2715 33.0886 12.5532 33.4363 12.9066 33.6742C13.2589 33.9114 13.6708 34.0326 14.0845 34.0326C14.4983 34.0326 14.9102 33.9114 15.2625 33.6742C15.6129 33.4383 15.8928 33.0944 16.045 32.6785L17.2373 29.4764L17.245 29.4553C17.5914 28.4803 18.1785 27.5853 18.9682 26.8451C19.7582 26.1046 20.7286 25.5403 21.8057 25.204L21.806 25.2039L25.2639 24.1235L25.2684 24.1221C25.6664 23.9963 26.0291 23.7515 26.2947 23.4049C26.5614 23.0567 26.7135 22.6261 26.7135 22.1737C26.7135 21.7212 26.5614 21.2906 26.2947 20.9424C26.0313 20.5987 25.6724 20.3551 25.2783 20.2284L21.8674 19.1107L21.8417 19.1025C20.7537 18.7676 19.7736 18.1998 18.9771 17.4525C18.1811 16.7056 17.5916 15.8012 17.2477 14.8164L17.2477 14.8164L17.2455 14.8102L16.0956 11.5637C16.0882 11.5427 16.0803 11.5219 16.072 11.5013C15.9043 11.0873 15.6094 10.7512 15.2477 10.5272C14.887 10.3038 14.4708 10.1977 14.0565 10.2133C13.6421 10.2289 13.2336 10.3662 12.8894 10.6188C12.5551 10.8641 12.2935 11.2105 12.1566 11.6214L11.0169 14.8055L11.0169 14.8055L11.0135 14.8153C10.6686 15.8003 10.0783 16.7048 9.28173 17.4519C8.48474 18.1993 7.50418 18.7673 6.41592 19.1026L6.41161 19.1039L2.95093 20.1818L2.95092 20.1818L2.94507 20.1836C2.54709 20.3093 2.18441 20.5542 1.91886 20.9008C1.65205 21.249 1.5 21.6796 1.5 22.132C1.5 22.5845 1.65206 23.015 1.91886 23.3632C2.18441 23.7098 2.54709 23.9547 2.94507 24.0804L2.94994 24.0819L6.41063 25.1624L6.4117 25.1627C7.48884 25.4981 8.45936 26.062 9.24926 26.8024ZM31.5724 5.98259L29.8507 6.51882C29.8487 6.51945 29.8466 6.52007 29.8446 6.5207C29.5897 6.59939 29.3498 6.73552 29.1472 6.92539C28.9427 7.11717 28.7814 7.35929 28.6855 7.63606C28.5893 7.91335 28.5638 8.21128 28.613 8.50299C28.6612 8.78884 28.7785 9.0529 28.9478 9.27575C29.1777 9.58017 29.4924 9.79323 29.8354 9.9018L29.8354 9.90181L29.842 9.90388L31.5724 10.4428L31.5725 10.4428C32.0057 10.5777 32.3912 10.8031 32.7013 11.0938C33.0107 11.3838 33.2361 11.73 33.3677 12.101C33.3679 12.1014 33.368 12.1017 33.3681 12.1021L33.9379 13.7198C34.0663 14.0891 34.3093 14.3933 34.613 14.6011C34.9181 14.8098 35.2748 14.9156 35.6319 14.9156C35.9889 14.9156 36.3456 14.8098 36.6507 14.6011C36.9499 14.3965 37.19 14.0983 37.3199 13.7367L37.9105 12.1432L37.9173 12.1244C38.0495 11.7527 38.2753 11.4059 38.5853 11.1153C38.8958 10.8243 39.2814 10.5986 39.7148 10.4632L41.4397 9.92601C41.7811 9.82124 42.0956 9.61353 42.3281 9.3149C42.5643 9.01149 42.7006 8.63248 42.7006 8.23222C42.7006 7.83196 42.5643 7.45294 42.3281 7.14953C42.0986 6.85485 41.7894 6.6487 41.4532 6.54262L39.7549 5.98868L39.731 5.9811C39.293 5.84629 38.9034 5.61924 38.5904 5.32559C38.2779 5.03233 38.0512 4.68184 37.9202 4.30647L37.918 4.30044L37.3431 2.67589C37.3357 2.65481 37.3277 2.63391 37.3193 2.61318C37.1733 2.25276 36.9177 1.96247 36.607 1.77005C36.2973 1.57828 35.9414 1.48798 35.5882 1.50128C35.235 1.5146 34.8852 1.63158 34.5892 1.84882C34.304 2.05808 34.0782 2.3544 33.9581 2.7083L33.3894 4.29468L33.3894 4.29466L33.3853 4.30636C33.2542 4.68165 33.0277 5.03208 32.7154 5.3254C32.4027 5.6191 32.0134 5.84635 31.5757 5.98155L31.5724 5.98259ZM31.3381 7.46281C31.3399 7.46524 31.3417 7.46767 31.3435 7.47011L31.3326 7.45568C31.3344 7.45805 31.3362 7.46042 31.3381 7.46281Z" stroke="white" stroke-width="3" stroke-linecap="round" stroke-linejoin="round"/>
</svg>
