<svg width="50" height="50" viewBox="0 0 50 50" fill="none" xmlns="http://www.w3.org/2000/svg">
<path d="M37.5 31.2498C35.8424 31.2498 34.2527 30.5913 33.0806 29.4192C31.9085 28.2471 31.25 26.6574 31.25 24.9998C31.25 23.3422 31.9085 21.7525 33.0806 20.5804C34.2527 19.4083 35.8424 18.7498 37.5 18.7498C39.1576 18.7498 40.7473 19.4083 41.9194 20.5804C43.0915 21.7525 43.75 23.3422 43.75 24.9998C43.75 26.6574 43.0915 28.2471 41.9194 29.4192C40.7473 30.5913 39.1576 31.2498 37.5 31.2498ZM37.5 21.8748C36.6712 21.8748 35.8763 22.2041 35.2903 22.7901C34.7042 23.3762 34.375 24.171 34.375 24.9998C34.375 25.8286 34.7042 26.6235 35.2903 27.2095C35.8763 27.7956 36.6712 28.1248 37.5 28.1248C38.3288 28.1248 39.1237 27.7956 39.7097 27.2095C40.2958 26.6235 40.625 25.8286 40.625 24.9998C40.625 24.171 40.2958 23.3762 39.7097 22.7901C39.1237 22.2041 38.3288 21.8748 37.5 21.8748ZM24.6875 13.0936C23.7089 13.1011 22.7421 12.8787 21.8651 12.4444C20.9882 12.01 20.2254 11.3757 19.6384 10.5926C19.0514 9.80957 18.6565 8.8996 18.4854 7.93599C18.3144 6.97238 18.372 5.98208 18.6537 5.04483C18.9354 4.10757 19.4333 3.24957 20.1072 2.53991C20.7811 1.83025 21.6123 1.28877 22.5337 0.959079C23.4552 0.629385 24.4412 0.520692 25.4124 0.641753C26.3835 0.762813 27.3127 1.11024 28.125 1.65606C29.2334 2.40081 30.0741 3.48096 30.5239 4.73825C30.9738 5.99553 31.0091 7.36385 30.6248 8.64268C30.2404 9.92151 29.4566 11.0436 28.3881 11.8446C27.3197 12.6456 26.0228 13.0833 24.6875 13.0936ZM24.6875 3.71857C23.8594 3.72064 23.0659 4.05132 22.4815 4.63799C21.897 5.22466 21.5693 6.01934 21.5703 6.84746C21.5713 7.67559 21.901 8.46944 22.487 9.05464C23.0729 9.63985 23.8672 9.96856 24.6953 9.96856C25.5234 9.96856 26.3177 9.63985 26.9036 9.05464C27.4896 8.46944 27.8193 7.67559 27.8203 6.84746C27.8213 6.01934 27.4936 5.22466 26.9092 4.63799C26.3247 4.05132 25.5312 3.72064 24.7031 3.71857H24.6875ZM24.7031 49.4061C23.0455 49.4233 21.449 48.7813 20.2647 47.6213C19.0804 46.4614 18.4055 44.8785 18.3883 43.2209C18.3711 41.5633 19.0131 39.9668 20.173 38.7825C21.3329 37.5982 22.9158 36.9233 24.5734 36.9061C25.3942 36.8975 26.2086 37.0508 26.9701 37.357C27.7317 37.6632 28.4255 38.1164 29.0118 38.6908C29.5982 39.2651 30.0658 39.9494 30.3877 40.7044C30.7097 41.4594 30.8798 42.2705 30.8883 43.0912C30.8968 43.912 30.7436 44.7264 30.4373 45.4879C30.1311 46.2495 29.6779 46.9432 29.1035 47.5296C28.5292 48.116 27.845 48.5835 27.09 48.9055C26.3349 49.2275 25.5239 49.3975 24.7031 49.4061ZM24.7031 40.0311C23.9045 40.1093 23.1667 40.4917 22.6423 41.0991C22.118 41.7065 21.8474 42.4923 21.8865 43.2937C21.9257 44.0951 22.2716 44.8508 22.8527 45.4042C23.4338 45.9575 24.2054 46.2662 25.0078 46.2662C25.8102 46.2662 26.5819 45.9575 27.1629 45.4042C27.744 44.8508 28.0899 44.0951 28.1291 43.2937C28.1682 42.4923 27.8976 41.7065 27.3733 41.0991C26.8489 40.4917 26.1111 40.1093 25.3125 40.0311C25.1047 40.0102 24.8953 40.0102 24.6875 40.0311H24.7031Z" fill="#F2ECEC"/>
<path d="M28.125 26.5625V23.4375H18.5312C18.2899 22.49 17.8297 21.6123 17.1875 20.875L20.7969 15.5L18.1719 13.75L14.5625 19.125C13.901 18.8848 13.2037 18.758 12.5 18.75C10.8424 18.75 9.25268 19.4085 8.08058 20.5806C6.90848 21.7527 6.25 23.3424 6.25 25C6.25 26.6576 6.90848 28.2473 8.08058 29.4194C9.25268 30.5915 10.8424 31.25 12.5 31.25C13.2037 31.242 13.901 31.1152 14.5625 30.875L18.1719 36.25L20.7656 34.5L17.1875 29.125C17.8297 28.3877 18.2899 27.51 18.5312 26.5625H28.125ZM9.375 25C9.375 24.1712 9.70424 23.3763 10.2903 22.7903C10.8763 22.2042 11.6712 21.875 12.5 21.875C13.3288 21.875 14.1237 22.2042 14.7097 22.7903C15.2958 23.3763 15.625 24.1712 15.625 25C15.625 25.8288 15.2958 26.6237 14.7097 27.2097C14.1237 27.7958 13.3288 28.125 12.5 28.125C11.6712 28.125 10.8763 27.7958 10.2903 27.2097C9.70424 26.6237 9.375 25.8288 9.375 25Z" fill="#F2ECEC"/>
</svg>
