<svg width="76" height="76" viewBox="0 0 76 76" fill="none" xmlns="http://www.w3.org/2000/svg">
<path d="M33.7226 21.3264C33.7226 19.1181 34.5947 17.0002 36.147 15.4387C37.6993 13.8772 39.8047 13 42 13C44.1953 13 46.3007 13.8772 47.853 15.4387C49.4053 17.0002 50.2774 19.1181 50.2774 21.3264C50.2774 23.5347 49.4053 25.6525 47.853 27.214C46.3007 28.7755 44.1953 29.6528 42 29.6528C39.8047 29.6528 37.6993 28.7755 36.147 27.214C34.5947 25.6525 33.7226 23.5347 33.7226 21.3264ZM42 17.1674C41.457 17.1674 40.9194 17.2749 40.4178 17.4839C39.9161 17.693 39.4603 17.9993 39.0764 18.3855C38.6925 18.7717 38.3879 19.2302 38.1802 19.7348C37.9724 20.2394 37.8654 20.7802 37.8654 21.3264C37.8654 21.8726 37.9724 22.4134 38.1802 22.918C38.3879 23.4226 38.6925 23.8811 39.0764 24.2673C39.4603 24.6535 39.9161 24.9598 40.4178 25.1688C40.9194 25.3778 41.457 25.4854 42 25.4854C43.0966 25.4854 44.1482 25.0472 44.9236 24.2673C45.699 23.4873 46.1346 22.4294 46.1346 21.3264C46.1346 20.2233 45.699 19.1655 44.9236 18.3855C44.1482 17.6055 43.0966 17.1674 42 17.1674ZM54.4286 23.4101C54.4286 22.5892 54.5893 21.7763 54.9016 21.0179C55.2139 20.2595 55.6716 19.5704 56.2487 18.9899C56.8257 18.4095 57.5108 17.949 58.2648 17.6349C59.0187 17.3207 59.8268 17.159 60.6429 17.159C61.4589 17.159 62.267 17.3207 63.021 17.6349C63.7749 17.949 64.46 18.4095 65.037 18.9899C65.6141 19.5704 66.0718 20.2595 66.3841 21.0179C66.6964 21.7763 66.8571 22.5892 66.8571 23.4101C66.8571 25.0679 66.2024 26.6579 65.037 27.8302C63.8716 29.0025 62.291 29.6611 60.6429 29.6611C58.9947 29.6611 57.4141 29.0025 56.2487 27.8302C55.0833 26.6579 54.4286 25.0679 54.4286 23.4101ZM60.6429 21.3264C60.0935 21.3264 59.5666 21.5459 59.1781 21.9367C58.7897 22.3274 58.5714 22.8574 58.5714 23.4101C58.5714 23.9627 58.7897 24.4927 59.1781 24.8835C59.5666 25.2742 60.0935 25.4937 60.6429 25.4937C61.1922 25.4937 61.7191 25.2742 62.1076 24.8835C62.496 24.4927 62.7143 23.9627 62.7143 23.4101C62.7143 22.8574 62.496 22.3274 62.1076 21.9367C61.7191 21.5459 61.1922 21.3264 60.6429 21.3264ZM23.3571 17.159C21.709 17.159 20.1284 17.8176 18.963 18.9899C17.7976 20.1622 17.1429 21.7522 17.1429 23.4101C17.1429 25.0679 17.7976 26.6579 18.963 27.8302C20.1284 29.0025 21.709 29.6611 23.3571 29.6611C25.0053 29.6611 26.5859 29.0025 27.7513 27.8302C28.9167 26.6579 29.5714 25.0679 29.5714 23.4101C29.5714 21.7522 28.9167 20.1622 27.7513 18.9899C26.5859 17.8176 25.0053 17.159 23.3571 17.159ZM21.2857 23.4101C21.2857 22.8574 21.504 22.3274 21.8924 21.9367C22.2809 21.5459 22.8078 21.3264 23.3571 21.3264C23.9065 21.3264 24.4334 21.5459 24.8219 21.9367C25.2103 22.3274 25.4286 22.8574 25.4286 23.4101C25.4286 23.9627 25.2103 24.4927 24.8219 24.8835C24.4334 25.2742 23.9065 25.4937 23.3571 25.4937C22.8078 25.4937 22.2809 25.2742 21.8924 24.8835C21.504 24.4927 21.2857 23.9627 21.2857 23.4101ZM26.5389 33.8285C25.8116 35.0955 25.4286 36.5328 25.4286 37.9958H17.1429V48.4142C17.1425 49.4508 17.3985 50.4712 17.8876 51.3836C18.3768 52.2959 19.0838 53.0716 19.945 53.6407C20.8063 54.2099 21.7947 54.5547 22.8214 54.644C23.848 54.7334 24.8806 54.5646 25.8263 54.1527C26.1329 55.5321 26.6134 56.849 27.2349 58.0783C25.6625 58.717 23.9583 58.9575 22.2719 58.7788C20.5856 58.6 18.9686 58.0076 17.5631 57.0533C16.1576 56.0991 15.0065 54.8123 14.2108 53.306C13.4152 51.7997 12.9994 50.12 13 48.4142V37.9958C13 36.8906 13.4365 35.8306 14.2134 35.0491C14.9904 34.2675 16.0441 33.8285 17.1429 33.8285H26.5389ZM56.7651 58.0783C58.3375 58.717 60.0417 58.9575 61.7281 58.7788C63.4144 58.6 65.0314 58.0076 66.4369 57.0533C67.8424 56.0991 68.9935 54.8123 69.7892 53.306C70.5848 51.7997 71.0006 50.12 71 48.4142V37.9958C71 36.8906 70.5635 35.8306 69.7866 35.0491C69.0096 34.2675 67.9559 33.8285 66.8571 33.8285H57.4611C58.1654 35.0537 58.5714 36.4747 58.5714 37.9958H66.8571V48.4142C66.8575 49.4508 66.6015 50.4712 66.1124 51.3836C65.6232 52.2959 64.9162 53.0716 64.055 53.6407C63.1937 54.2099 62.2053 54.5547 61.1786 54.644C60.152 54.7334 59.1194 54.5646 58.1737 54.1527C57.8589 55.5363 57.3893 56.8448 56.7651 58.0783ZM33.7143 33.8243C32.6155 33.8243 31.5618 34.2634 30.7848 35.0449C30.0079 35.8264 29.5714 36.8864 29.5714 37.9917V50.4979C29.5714 53.8137 30.8809 56.9936 33.2117 59.3382C35.5425 61.6828 38.7037 63 42 63C45.2963 63 48.4575 61.6828 50.7883 59.3382C53.1191 56.9936 54.4286 53.8137 54.4286 50.4979V37.9958C54.4286 36.8906 53.9921 35.8306 53.2152 35.0491C52.4382 34.2675 51.3845 33.8285 50.2857 33.8285L33.7143 33.8243ZM33.7143 37.9917H50.2857V50.4979C50.2857 52.7084 49.4128 54.8284 47.8589 56.3915C46.305 57.9545 44.1975 58.8326 42 58.8326C39.8025 58.8326 37.695 57.9545 36.1411 56.3915C34.5872 54.8284 33.7143 52.7084 33.7143 50.4979V37.9917Z" fill="white"/>
</svg>
